<svg xmlns="http://www.w3.org/2000/svg" viewBox="0 0 102 102"><defs><style>.cls-1{fill:none;stroke:#cac7cb;stroke-miterlimit:10;stroke-width:2px;}</style></defs><title>Meetup_Grey</title><g id="Layer_2" data-name="Layer 2"><g id="Layer_14" data-name="Layer 14"><path class="cls-1" d="M51,1a50,50,0,1,0,50,50A50,50,0,0,0,51,1ZM86,76.93a7.7,7.7,0,0,1-3.61,2c-3.75,1-8.18,0-11.67-1.57C59.58,72.47,62,60.07,66.91,51.53c1.47-2.57,2.91-5.15,4.37-7.75,1.14-2.05,3.62-5.49,2.65-8s-3.74-2.64-5.53-.43A40.61,40.61,0,0,0,64.05,43c-1.29,2.7-7.74,16.86-7.74,16.86-1.19,2.31-3.2,5.63-5.37,7.46a5.64,5.64,0,0,1-6.55.35,3.84,3.84,0,0,1-1.48-4.17c1.34-7.7,13-25.62,5-26.88C44.79,36.14,44,39.58,43,41.77c-1.57,3.62-2.77,7.4-4.46,11a63.88,63.88,0,0,0-4.43,12.81c-.81,3.53-1.86,8-5.88,9.1-11,2.94-14.34-4.32-14.34-4.32-1.8-5.72-.1-10.86,1.63-16.35,1.34-4.25,2.14-8.63,3.83-12.76,3-7.36,6-22.73,16.91-21.75a21.73,21.73,0,0,1,8.29,3.06c2.18,1.27,3.84,1.95,6.38.58s3.6-3.81,6.54-4.66c3.16-.91,5.23.44,7.59,2.33,3.31,2.66,3.67,1.46,6.4.76a18,18,0,0,1,7.37-.42c12.77,2.19,4.64,18.48,1.59,25-2,4.26-11.44,21.39-3.06,23.69,2.53.7,5.79.38,7.9,2.2S87.18,75.63,86,76.93Z"/></g></g></svg>