<svg xmlns="http://www.w3.org/2000/svg" viewBox="0 0 192.85 146.41"><defs><style>.cls-1{fill:#191956;}</style></defs><title>VerticalLogo_Blue</title><g id="Layer_2" data-name="Layer 2"><g id="Layer_5" data-name="Layer 5"><polygon class="cls-1" points="107.72 0 107.69 0 88.4 0 88.37 0 69.49 37.49 88.81 37.49 98.04 19.16 107.28 37.49 126.6 37.49 107.72 0"/><polygon class="cls-1" points="128.89 42.05 109.57 42.05 127.04 76.75 146.37 76.75 128.89 42.05"/><polygon class="cls-1" points="47.56 42.05 38.63 59.4 58.46 59.4 49.72 76.75 69.04 76.75 77.78 59.4 96.58 59.4 105.53 42.05 47.56 42.05"/><path class="cls-1" d="M10.19,97.36H13.8L23.9,120.8H19.13L17,115.43H6.78L4.67,120.8H0Zm5.3,14.5-3.61-9.53-3.67,9.53Z"/><path class="cls-1" d="M29.75,97.36h6.52L42.36,114h.1l6-16.65H55V120.8H50.9V102h-.07L43.72,120.8H40.81l-7-18.84h-.07V120.8h-4Z"/><path class="cls-1" d="M71.09,97.36H74.7L84.79,120.8H80l-2.18-5.37H67.68l-2.12,5.37H60.9Zm5.29,14.5-3.6-9.53-3.68,9.53Z"/><path class="cls-1" d="M90.65,97.36h8.14c4.4,0,8.64,1.76,8.64,6.72,0,3.38-2.09,5.6-5.36,6.32l6.25,10.4h-5l-5.43-9.93h-3v9.93H90.65Zm7.58,10.1c2.35,0,5-.56,5-3.41,0-2.55-2.52-3.18-4.67-3.18H94.82v6.59Z"/><path class="cls-1" d="M115,97.36h4.17V120.8H115Z"/><path class="cls-1" d="M127.88,97.36h4.17v19.73h10v3.71H127.88Z"/><path class="cls-1" d="M148.33,97.36h4.17v19.73h10v3.71H148.33Z"/><path class="cls-1" d="M180.2,96.77c7.32,0,12.65,4.73,12.65,12.24,0,7.32-5.33,12.38-12.65,12.38s-12.54-5.06-12.54-12.38C167.66,101.5,173,96.77,180.2,96.77Zm0,20.88c4.79,0,8.07-3.64,8.07-8.64,0-4.83-3.21-8.57-8.07-8.57s-8.05,3.74-8.05,8.57C172.19,114,175.47,117.65,180.24,117.65Z"/><path class="cls-1" d="M.8,132.14v1.4H5.34V146H7.06V133.54H11.6v-1.4Z"/><path class="cls-1" d="M18,144.6v-5.09h6.79v-1.3H18v-4.67h7.17v-1.4h-8.9V146h9.27V144.6Z"/><path class="cls-1" d="M41.59,143.4A4.87,4.87,0,0,1,37.91,145c-3.27,0-5.47-2.38-5.47-5.91A5.54,5.54,0,0,1,38,133.18a4.83,4.83,0,0,1,3.43,1.35l1.3-1A6.81,6.81,0,0,0,38,131.77c-4.46,0-7.57,3-7.57,7.28a7.09,7.09,0,0,0,7.45,7.36,6.69,6.69,0,0,0,5.06-2Z"/><path class="cls-1" d="M57.34,132.14v6H49.52v-6H47.79V146h1.73v-6.56h7.82V146h1.73V132.14Z"/><path class="cls-1" d="M72.64,132.14V146h1.73V132.14Z"/><path class="cls-1" d="M91,132.14v11.08h-.75l-6.88-11.08H80.63V146h1.72V134.6h.75l7,11.43h2.63V132.14Z"/><path class="cls-1" d="M99,132.14V146h1.73V132.14Z"/><path class="cls-1" d="M105.46,132.14v1.4H110V146h1.73V133.54h4.54v-1.4Z"/><path class="cls-1" d="M121,132.14V146h1.72V132.14Z"/><path class="cls-1" d="M135.12,132.14h-1.68l-6,13.89h2l1.34-3.38h7l1.38,3.38h2Zm-3.9,9.16,3-7.75,2.93,7.75Z"/><path class="cls-1" d="M144.25,132.14v1.4h4.54V146h1.72V133.54h4.54v-1.4Z"/><path class="cls-1" d="M159.76,132.14V146h1.73V132.14Z"/><path class="cls-1" d="M177,132.14l-4.12,11.39h-.72l-4.08-11.39h-2l5.5,13.89h1.66l5.57-13.89Z"/><path class="cls-1" d="M185.21,144.6v-5.09H192v-1.3h-6.8v-4.67h7.17v-1.4h-8.89V146h9.27V144.6Z"/></g></g></svg>
